<svg width="41" height="41" viewBox="0 0 41 41" fill="none" xmlns="http://www.w3.org/2000/svg">
<path d="M20.3123 2.53931C10.4963 2.53931 2.53711 10.4985 2.53711 20.3145C2.53711 30.1306 10.4963 38.0898 20.3123 38.0898C30.1284 38.0898 38.0876 30.1306 38.0876 20.3145C38.0876 10.4985 30.1284 2.53931 20.3123 2.53931ZM20.3123 35.0743C12.1627 35.0743 5.55255 28.4642 5.55255 20.3145C5.55255 12.1649 12.1627 5.55475 20.3123 5.55475C28.462 5.55475 35.0721 12.1649 35.0721 20.3145C35.0721 28.4642 28.462 35.0743 20.3123 35.0743ZM22.2049 19.394L21.1971 19.1599V13.8313C22.7049 14.0377 23.6373 14.982 23.796 16.1405C23.8158 16.2992 23.9507 16.4143 24.1094 16.4143H25.8909C26.0774 16.4143 26.2242 16.2516 26.2083 16.0651C25.9663 13.5933 23.9309 12.0062 21.213 11.7324V10.435C21.213 10.2604 21.0702 10.1176 20.8956 10.1176H19.7807C19.6061 10.1176 19.4633 10.2604 19.4633 10.435V11.7443C16.6541 12.0181 14.456 13.5695 14.456 16.4659C14.456 19.148 16.4319 20.4415 18.507 20.9375L19.4871 21.1874V26.8493C17.7333 26.6152 16.7494 25.6788 16.547 24.4171C16.5232 24.2663 16.3883 24.1553 16.2336 24.1553H14.4005C14.214 24.1553 14.0672 24.314 14.0831 24.5004C14.2616 26.6827 15.9161 28.6903 19.4474 28.9482V30.1941C19.4474 30.3686 19.5902 30.5115 19.7648 30.5115H20.8916C21.0662 30.5115 21.209 30.3686 21.209 30.1901L21.2011 28.9323C24.3078 28.6586 26.5297 26.9961 26.5297 24.0124C26.5257 21.2588 24.776 20.0289 22.2049 19.394ZM19.4831 18.7513C19.2609 18.6878 19.0744 18.6283 18.8879 18.5529C17.5469 18.0688 16.9239 17.2872 16.9239 16.2794C16.9239 14.8391 18.015 14.0178 19.4831 13.8313V18.7513ZM21.1971 26.8612V21.5564C21.3201 21.5921 21.4312 21.6199 21.5463 21.6437C23.423 22.2151 24.0539 23.0086 24.0539 24.2267C24.0539 25.778 22.8874 26.7104 21.1971 26.8612Z" fill="#00BDD3"/>
</svg>
