<svg width="33" height="33" viewBox="0 0 33 33" fill="none" xmlns="http://www.w3.org/2000/svg">
<g clip-path="url(#clip0_704_8734)">
<path d="M22.3434 13.2044C22.3434 12.9351 22.4504 12.6767 22.6409 12.4862C22.8314 12.2957 23.0898 12.1887 23.3592 12.1887H25.3906C25.66 12.1887 25.9184 12.2957 26.1088 12.4862C26.2993 12.6767 26.4063 12.9351 26.4063 13.2044V15.2359C26.4063 15.5053 26.2993 15.7636 26.1088 15.9541C25.9184 16.1446 25.66 16.2516 25.3906 16.2516H23.3592C23.0898 16.2516 22.8314 16.1446 22.6409 15.9541C22.4504 15.7636 22.3434 15.5053 22.3434 15.2359V13.2044ZM16.2491 13.2044C16.2491 12.9351 16.3561 12.6767 16.5466 12.4862C16.7371 12.2957 16.9954 12.1887 17.2648 12.1887H19.2963C19.5656 12.1887 19.824 12.2957 20.0145 12.4862C20.205 12.6767 20.312 12.9351 20.312 13.2044V15.2359C20.312 15.5053 20.205 15.7636 20.0145 15.9541C19.824 16.1446 19.5656 16.2516 19.2963 16.2516H17.2648C16.9954 16.2516 16.7371 16.1446 16.5466 15.9541C16.3561 15.7636 16.2491 15.5053 16.2491 15.2359V13.2044ZM6.0918 19.2988C6.0918 19.0294 6.19881 18.7711 6.3893 18.5806C6.57978 18.3901 6.83814 18.2831 7.10752 18.2831H9.13898C9.40837 18.2831 9.66672 18.3901 9.85721 18.5806C10.0477 18.7711 10.1547 19.0294 10.1547 19.2988V21.3303C10.1547 21.5997 10.0477 21.858 9.85721 22.0485C9.66672 22.239 9.40837 22.346 9.13898 22.346H7.10752C6.83814 22.346 6.57978 22.239 6.3893 22.0485C6.19881 21.858 6.0918 21.5997 6.0918 21.3303V19.2988ZM12.1862 19.2988C12.1862 19.0294 12.2932 18.7711 12.4837 18.5806C12.6741 18.3901 12.9325 18.2831 13.2019 18.2831H15.2333C15.5027 18.2831 15.7611 18.3901 15.9516 18.5806C16.1421 18.7711 16.2491 19.0294 16.2491 19.2988V21.3303C16.2491 21.5997 16.1421 21.858 15.9516 22.0485C15.7611 22.239 15.5027 22.346 15.2333 22.346H13.2019C12.9325 22.346 12.6741 22.239 12.4837 22.0485C12.2932 21.858 12.1862 21.5997 12.1862 21.3303V19.2988Z" fill="#00BDD3"/>
<path d="M7.10814 0C7.37753 0 7.63588 0.107014 7.82637 0.2975C8.01685 0.487986 8.12387 0.74634 8.12387 1.01573V2.03145H24.3755V1.01573C24.3755 0.74634 24.4825 0.487986 24.673 0.2975C24.8635 0.107014 25.1218 0 25.3912 0C25.6606 0 25.919 0.107014 26.1095 0.2975C26.2999 0.487986 26.407 0.74634 26.407 1.01573V2.03145H28.4384C29.516 2.03145 30.5494 2.45951 31.3113 3.22145C32.0733 3.9834 32.5013 5.01681 32.5013 6.09436V28.4404C32.5013 29.5179 32.0733 30.5513 31.3113 31.3133C30.5494 32.0752 29.516 32.5033 28.4384 32.5033H4.06096C2.98341 32.5033 1.94999 32.0752 1.18805 31.3133C0.426102 30.5513 -0.00195312 29.5179 -0.00195312 28.4404V6.09436C-0.00195312 5.01681 0.426102 3.9834 1.18805 3.22145C1.94999 2.45951 2.98341 2.03145 4.06096 2.03145H6.09241V1.01573C6.09241 0.74634 6.19943 0.487986 6.38991 0.2975C6.5804 0.107014 6.83875 0 7.10814 0V0ZM2.0295 8.12582V28.4404C2.0295 28.9791 2.24353 29.4959 2.6245 29.8768C3.00547 30.2578 3.52218 30.4718 4.06096 30.4718H28.4384C28.9772 30.4718 29.4939 30.2578 29.8749 29.8768C30.2558 29.4959 30.4699 28.9791 30.4699 28.4404V8.12582H2.0295Z" fill="#00BDD3"/>
</g>
<defs>
<clipPath id="clip0_704_8734">
<rect width="32.5033" height="32.5033" fill="white"/>
</clipPath>
</defs>
</svg>
