<svg width="50" height="51" viewBox="0 0 50 51" fill="none" xmlns="http://www.w3.org/2000/svg">
<circle cx="24.6905" cy="25.482" r="24.1905" fill="url(#paint0_linear_704_8061)"/>
<circle cx="24.6905" cy="25.482" r="24.1905" stroke="#45FCDB"/>
<circle cx="24.6905" cy="25.482" r="24.1905" stroke="#45FCDB"/>
<path fill-rule="evenodd" clip-rule="evenodd" d="M23.6897 13.7915C19.0267 13.7915 15 17.8234 15 22.6336C15 25.4938 15.7547 26.71 19.1626 32.2025L19.1627 32.2027C19.9149 33.415 20.7964 34.8357 21.8276 36.5283C22.9714 38.1451 25.0296 38.1434 26.1724 36.5283C27.2037 34.8355 28.0852 33.4148 28.8374 32.2024L28.8375 32.2023C32.2473 26.7067 33 25.4935 33 22.6336C33 17.8182 28.9681 13.7915 23.6897 13.7915ZM21.2126 31.0165L21.2126 31.0165C17.9786 25.9553 17.4824 25.1789 17.4824 23.2652C17.4824 19.3522 20.5392 16.3179 24.31 16.3179C28.0808 16.3179 31.1376 19.3522 31.1376 23.2652C31.1376 25.1737 30.6819 25.8872 27.4147 31.0032C26.5776 32.314 25.5559 33.9138 24.31 35.8968C23.0686 33.9209 22.0491 32.3254 21.2126 31.0165ZM23.689 18.8442C21.6322 18.8442 19.9648 20.5408 19.9648 22.6337C19.9648 24.7266 21.6322 26.4232 23.689 26.4232C25.7458 26.4232 27.4131 24.7266 27.4131 22.6337C27.4131 20.5408 25.7458 18.8442 23.689 18.8442Z" fill="white"/>
<defs>
<linearGradient id="paint0_linear_704_8061" x1="-23.9089" y1="24.7004" x2="23.9089" y2="72.5181" gradientUnits="userSpaceOnUse">
<stop stop-color="#45FCDB"/>
<stop offset="1" stop-color="#1E84FC"/>
</linearGradient>
</defs>
</svg>
