<svg width="45" height="46" viewBox="0 0 45 46" fill="none" xmlns="http://www.w3.org/2000/svg">
<circle cx="22.4554" cy="23.1551" r="22.3636" fill="white"/>
<path d="M29.7295 19.5186C30.4912 18.9473 31.1768 18.2617 31.71 17.4619C31.0244 17.7666 30.2246 17.9951 29.4248 18.0713C30.2627 17.5762 30.8721 16.8145 31.1768 15.8623C30.415 16.3193 29.5391 16.6621 28.6631 16.8525C27.9014 16.0527 26.873 15.5957 25.7305 15.5957C23.5215 15.5957 21.7314 17.3857 21.7314 19.5947C21.7314 19.8994 21.7695 20.2041 21.8457 20.5088C18.5322 20.3184 15.5615 18.7187 13.5811 16.3193C13.2383 16.8906 13.0479 17.5762 13.0479 18.3379C13.0479 19.709 13.7334 20.9277 14.8379 21.6514C14.1904 21.6133 13.543 21.4609 13.0098 21.1562V21.1943C13.0098 23.1367 14.3809 24.7363 16.209 25.1172C15.9043 25.1934 15.5234 25.2695 15.1807 25.2695C14.9141 25.2695 14.6855 25.2314 14.4189 25.1934C14.9141 26.793 16.3994 27.9355 18.1514 27.9736C16.7803 29.04 15.0664 29.6875 13.2002 29.6875C12.8574 29.6875 12.5527 29.6494 12.248 29.6113C14 30.7539 16.0947 31.4014 18.3799 31.4014C25.7305 31.4014 29.7295 25.3457 29.7295 20.0518C29.7295 19.8613 29.7295 19.709 29.7295 19.5186Z" fill="#00E4BD"/>
</svg>
