<svg width="50" height="51" viewBox="0 0 50 51" fill="none" xmlns="http://www.w3.org/2000/svg">
<circle cx="24.6905" cy="25.482" r="24.1905" fill="url(#paint0_linear_704_8047)"/>
<circle cx="24.6905" cy="25.482" r="24.1905" stroke="#45FCDB"/>
<circle cx="24.6905" cy="25.482" r="24.1905" stroke="#45FCDB"/>
<path d="M31.0045 18.3431C29.1339 16.3743 26.6429 15.2915 23.9955 15.2915C18.5312 15.2915 14.0848 19.9603 14.0848 25.6978C14.0848 27.5306 14.5402 29.3212 15.4062 30.9009L14 36.2915L19.2545 34.8431C20.7009 35.6728 22.3304 36.1087 23.9911 36.1087H23.9955C29.4554 36.1087 34 31.4399 34 25.7024C34 22.9228 32.875 20.3118 31.0045 18.3431ZM23.9955 34.3556C22.5134 34.3556 21.0625 33.9384 19.7991 33.1509L19.5 32.9634L16.3839 33.8212L17.2143 30.629L17.0179 30.3009C16.192 28.9228 15.7589 27.3337 15.7589 25.6978C15.7589 20.9306 19.4554 17.0493 24 17.0493C26.2009 17.0493 28.2679 17.9493 29.8214 19.5853C31.375 21.2212 32.3304 23.3915 32.3259 25.7024C32.3259 30.4743 28.5357 34.3556 23.9955 34.3556ZM28.5134 27.8774C28.2679 27.7462 27.0491 27.1181 26.8214 27.0337C26.5938 26.9446 26.4286 26.9024 26.2634 27.1649C26.0982 27.4274 25.625 28.0087 25.4777 28.1868C25.3348 28.3603 25.1875 28.3837 24.942 28.2524C23.4866 27.4884 22.5312 26.8884 21.5714 25.1587C21.317 24.6993 21.8259 24.7321 22.2991 23.7384C22.3795 23.5649 22.3393 23.4149 22.2768 23.2837C22.2143 23.1524 21.7188 21.8728 21.5134 21.3524C21.3125 20.8462 21.1071 20.9165 20.9554 20.9071C20.8125 20.8978 20.6473 20.8978 20.4821 20.8978C20.317 20.8978 20.0491 20.9634 19.8214 21.2212C19.5938 21.4837 18.9554 22.1118 18.9554 23.3915C18.9554 24.6712 19.8438 25.9087 19.9643 26.0821C20.0893 26.2556 21.7098 28.8806 24.1964 30.0103C25.7679 30.7228 26.3839 30.7837 27.1696 30.6618C27.6473 30.5868 28.6339 30.0337 28.8393 29.4243C29.0446 28.8149 29.0446 28.2946 28.9821 28.1868C28.9241 28.0696 28.7589 28.004 28.5134 27.8774Z" fill="white"/>
<defs>
<linearGradient id="paint0_linear_704_8047" x1="-23.9089" y1="24.7004" x2="23.9089" y2="72.5181" gradientUnits="userSpaceOnUse">
<stop stop-color="#45FCDB"/>
<stop offset="1" stop-color="#1E84FC"/>
</linearGradient>
</defs>
</svg>
