<svg width="50" height="51" viewBox="0 0 50 51" fill="none" xmlns="http://www.w3.org/2000/svg">
<circle cx="24.6905" cy="25.482" r="24.1905" fill="url(#paint0_linear_704_8053)"/>
<circle cx="24.6905" cy="25.482" r="24.1905" stroke="#45FCDB"/>
<circle cx="24.6905" cy="25.482" r="24.1905" stroke="#45FCDB"/>
<path fill-rule="evenodd" clip-rule="evenodd" d="M32.3461 18.6011H16.6616C15.4042 18.6011 14.5703 19.4618 14.5703 20.7226V31.8605C14.5703 33.1213 15.4042 33.982 16.6616 33.982H32.3461C33.6035 33.982 34.4374 33.1213 34.4374 31.8605V20.7226C34.4374 19.4618 33.6035 18.6011 32.3461 18.6011ZM32.8675 20.7227V22.3138L32.7114 22.4376L32.7113 22.4376C31.8285 23.1377 30.4308 24.246 27.6393 26.5568C27.4122 26.6835 27.1132 26.9082 26.792 27.1495L26.792 27.1495C26.1637 27.6216 25.4507 28.1574 25.0252 28.1479C24.1642 28.1586 23.2297 27.4895 22.5296 26.9882C22.282 26.8109 22.0637 26.6546 21.8883 26.5568C19.0991 24.2478 17.7012 23.1393 16.8181 22.439L16.818 22.439L16.6602 22.3138V20.7227H32.8675ZM16.6602 24.4351V31.8603H32.8675V24.4351C31.9747 25.1653 30.7084 26.1902 28.685 27.6173C27.9005 28.4518 26.4281 29.9492 25.0252 29.7388C23.0914 29.9492 21.6001 28.4297 20.8427 27.6173C18.8189 26.1898 17.5529 25.1652 16.6602 24.4351Z" fill="#45FCDB"/>
<path fill-rule="evenodd" clip-rule="evenodd" d="M32.3461 18.6011H16.6616C15.4042 18.6011 14.5703 19.4618 14.5703 20.7226V31.8605C14.5703 33.1213 15.4042 33.982 16.6616 33.982H32.3461C33.6035 33.982 34.4374 33.1213 34.4374 31.8605V20.7226C34.4374 19.4618 33.6035 18.6011 32.3461 18.6011ZM32.8675 20.7227V22.3138L32.7114 22.4376L32.7113 22.4376C31.8285 23.1377 30.4308 24.246 27.6393 26.5568C27.4122 26.6835 27.1132 26.9082 26.792 27.1495L26.792 27.1495C26.1637 27.6216 25.4507 28.1574 25.0252 28.1479C24.1642 28.1586 23.2297 27.4895 22.5296 26.9882C22.282 26.8109 22.0637 26.6546 21.8883 26.5568C19.0991 24.2478 17.7012 23.1393 16.8181 22.439L16.818 22.439L16.6602 22.3138V20.7227H32.8675ZM16.6602 24.4351V31.8603H32.8675V24.4351C31.9747 25.1653 30.7084 26.1902 28.685 27.6173C27.9005 28.4518 26.4281 29.9492 25.0252 29.7388C23.0914 29.9492 21.6001 28.4297 20.8427 27.6173C18.8189 26.1898 17.5529 25.1652 16.6602 24.4351Z" fill="white"/>
<defs>
<linearGradient id="paint0_linear_704_8053" x1="-23.9089" y1="24.7004" x2="23.9089" y2="72.5181" gradientUnits="userSpaceOnUse">
<stop stop-color="#45FCDB"/>
<stop offset="1" stop-color="#1E84FC"/>
</linearGradient>
</defs>
</svg>
