<svg width="28" height="28" viewBox="0 0 28 28" fill="none" xmlns="http://www.w3.org/2000/svg">
<path fill-rule="evenodd" clip-rule="evenodd" d="M18.6654 10.5002C18.6654 11.7378 18.1737 12.9248 17.2985 13.8C16.4234 14.6752 15.2364 15.1668 13.9987 15.1668C12.761 15.1668 11.574 14.6752 10.6989 13.8C9.8237 12.9248 9.33203 11.7378 9.33203 10.5002C9.33203 9.26249 9.8237 8.0755 10.6989 7.20033C11.574 6.32516 12.761 5.8335 13.9987 5.8335C15.2364 5.8335 16.4234 6.32516 17.2985 7.20033C18.1737 8.0755 18.6654 9.26249 18.6654 10.5002ZM16.332 10.5002C16.332 11.119 16.0862 11.7125 15.6486 12.1501C15.211 12.5877 14.6175 12.8335 13.9987 12.8335C13.3799 12.8335 12.7864 12.5877 12.3488 12.1501C11.9112 11.7125 11.6654 11.119 11.6654 10.5002C11.6654 9.88132 11.9112 9.28783 12.3488 8.85025C12.7864 8.41266 13.3799 8.16683 13.9987 8.16683C14.6175 8.16683 15.211 8.41266 15.6486 8.85025C16.0862 9.28783 16.332 9.88132 16.332 10.5002Z" fill="#009CAE"/>
<path fill-rule="evenodd" clip-rule="evenodd" d="M13.9993 1.16675C6.91185 1.16675 1.16602 6.91258 1.16602 14.0001C1.16602 21.0876 6.91185 26.8334 13.9993 26.8334C21.0868 26.8334 26.8327 21.0876 26.8327 14.0001C26.8327 6.91258 21.0868 1.16675 13.9993 1.16675ZM3.49935 14.0001C3.49935 16.4384 4.33118 18.6831 5.72535 20.4657C6.70445 19.18 7.96757 18.138 9.41602 17.4211C10.8645 16.7043 12.4591 16.332 14.0752 16.3334C15.6704 16.3319 17.2449 16.6945 18.6788 17.3937C20.1126 18.0928 21.368 19.11 22.3492 20.3677C23.36 19.042 24.0407 17.4945 24.3347 15.8534C24.6288 14.2124 24.5279 12.5249 24.0403 10.9306C23.5527 9.33625 22.6924 7.88097 21.5307 6.68512C20.3691 5.48928 18.9393 4.58725 17.3598 4.05367C15.7803 3.5201 14.0964 3.37031 12.4475 3.61672C10.7986 3.86312 9.23211 4.49862 7.87758 5.47064C6.52305 6.44267 5.41946 7.72326 4.65812 9.20648C3.89677 10.6897 3.49956 12.3329 3.49935 14.0001ZM13.9993 24.5001C11.589 24.5037 9.25133 23.6745 7.38202 22.1527C8.13443 21.0756 9.13591 20.1962 10.3012 19.5892C11.4666 18.9823 12.7613 18.6658 14.0752 18.6667C15.3727 18.6657 16.6518 18.9742 17.8061 19.5667C18.9604 20.1592 19.9568 21.0186 20.7123 22.0734C18.8285 23.6446 16.4524 24.5035 13.9993 24.5001Z" fill="#009CAE"/>
</svg>
