<svg width="276" height="71" viewBox="0 0 276 71" fill="none" xmlns="http://www.w3.org/2000/svg">
<g clip-path="url(#clip0_704_8587)">
<path d="M41.896 55.1717C34.3256 58.6219 20.7354 55.3836 17.0566 52.5993C11.7664 49.3005 10.3983 45.0029 10.3679 41.9462C10.3071 37.1947 14.1683 34.017 14.8676 33.6538C9.88145 26.2693 14.7156 19.9138 17.9383 18.4006C27.3025 14.1939 31.8325 24.4535 31.8325 24.4535C35.8458 18.3401 42.3216 19.127 44.8451 20.1257C53.9661 24.3627 49.436 34.2894 46.6085 36.8316C51.5034 41.0988 50.3481 47.0609 48.2807 50.2386C46.3957 53.0835 43.629 54.3849 41.896 55.1717Z" fill="white"/>
<path d="M203.671 28.6301C205.131 28.6301 206.377 28.8722 207.411 29.3262C208.445 29.7802 209.296 30.446 209.934 31.2631C210.573 32.0803 211.059 33.0487 211.363 34.1685C211.667 35.2883 211.819 36.4988 211.819 37.7699C211.819 39.0713 211.667 40.2819 211.363 41.3411C211.059 42.4306 210.573 43.3688 209.904 44.1254C209.235 44.9123 208.384 45.5176 207.35 45.9716C206.316 46.4255 205.1 46.6374 203.641 46.6374C202.212 46.6374 200.965 46.4255 199.962 45.9716C198.959 45.5176 198.107 44.9123 197.469 44.0952C196.8 43.3083 196.344 42.3701 196.04 41.2806C195.736 40.1911 195.584 38.9805 195.584 37.7094C195.584 36.4383 195.736 35.2277 196.04 34.1382C196.344 33.0184 196.8 32.0803 197.439 31.2631C198.077 30.446 198.898 29.8104 199.932 29.3565C200.965 28.842 202.212 28.6301 203.671 28.6301ZM203.671 43.1267C205.1 43.1267 206.134 42.6727 206.803 41.7346C207.472 40.7964 207.806 39.4647 207.806 37.7699C207.806 36.0751 207.502 34.7132 206.864 33.6843C206.225 32.6553 205.161 32.1408 203.641 32.1408C202.881 32.1408 202.242 32.2921 201.725 32.5947C201.209 32.8974 200.813 33.2908 200.509 33.8053C200.205 34.3198 199.992 34.8948 199.871 35.5606C199.749 36.2265 199.688 36.9528 199.688 37.7094C199.688 39.4042 199.992 40.7358 200.631 41.7043C201.239 42.6425 202.242 43.1267 203.671 43.1267Z" fill="#32BEA6"/>
<path d="M224.224 36.1962C224.224 35.5304 224.194 34.9251 224.103 34.4106C224.011 33.8961 223.859 33.4724 223.647 33.1395C223.434 32.8066 223.099 32.5645 222.704 32.3829C222.309 32.2013 221.792 32.1408 221.184 32.1408C220.667 32.1408 220.211 32.2013 219.785 32.2921C219.36 32.3829 218.995 32.5947 218.661 32.8671C218.357 33.1395 218.113 33.5632 217.931 34.0777C217.748 34.5922 217.657 35.258 217.657 36.0449V44.9728C217.657 45.336 217.475 45.6386 217.11 45.911C216.745 46.1834 216.259 46.3045 215.711 46.3045C215.134 46.3045 214.678 46.1531 214.313 45.8808C213.948 45.6084 213.766 45.3057 213.766 44.9728V30.2644C213.766 29.871 213.948 29.5683 214.343 29.3262C214.739 29.0841 215.195 28.9328 215.742 28.9328C216.289 28.9328 216.745 29.0538 217.11 29.3262C217.475 29.5683 217.657 29.9012 217.657 30.2644V31.8079C217.84 31.4144 218.083 31.0513 218.326 30.6578C218.6 30.2644 218.904 29.9315 219.269 29.6288C219.633 29.3262 220.059 29.0841 220.546 28.8722C221.032 28.6906 221.579 28.5999 222.187 28.5999C223.099 28.5999 223.92 28.7209 224.65 28.9933C225.38 29.2354 226.018 29.6288 226.535 30.1131C227.052 30.5973 227.447 31.2328 227.751 31.9895C228.025 32.7461 228.177 33.6237 228.177 34.6527V44.9728C228.177 45.3663 227.994 45.6689 227.66 45.911C227.325 46.1531 226.839 46.3045 226.261 46.3045C225.684 46.3045 225.197 46.1834 224.802 45.911C224.437 45.6689 224.255 45.336 224.255 44.9728V36.1962H224.224Z" fill="#32BEA6"/>
<path d="M234.683 44.9726C234.683 45.3661 234.501 45.6687 234.136 45.9108C233.771 46.1529 233.285 46.274 232.677 46.3042C232.099 46.3345 231.612 46.2135 231.217 45.9411C230.852 45.6687 230.67 45.3661 230.67 44.9726V23.9389C230.67 23.3639 230.822 22.9402 231.096 22.6678C231.369 22.3955 231.916 22.2441 232.677 22.2441C233.437 22.2441 233.953 22.3955 234.258 22.6981C234.531 23.0007 234.683 23.5152 234.683 24.2416V35.5302L240.733 29.5076C241.129 29.0839 241.585 28.9023 242.102 28.9628C242.618 29.0233 243.044 29.2352 243.409 29.5984C243.774 29.9615 243.987 30.4155 244.017 30.9603C244.078 31.505 243.835 32.0498 243.318 32.5945L238.149 37.5579L243.622 42.7331C244.199 43.3383 244.503 43.9134 244.473 44.4581C244.443 45.0029 244.26 45.4568 243.895 45.7595C243.561 46.0924 243.105 46.274 242.588 46.3042C242.071 46.3345 241.615 46.1832 241.25 45.7898L234.683 39.5553V44.9726Z" fill="#32BEA6"/>
<path d="M252.803 46.6374C251.526 46.6374 250.401 46.4255 249.428 46.0018C248.486 45.5781 247.695 44.9728 247.057 44.2162C246.419 43.4596 245.932 42.5214 245.628 41.4319C245.324 40.3424 245.142 39.1016 245.142 37.7699C245.142 36.4686 245.294 35.258 245.628 34.1382C245.932 33.0184 246.419 32.05 247.087 31.2329C247.726 30.4157 248.547 29.7802 249.489 29.3262C250.432 28.8722 251.557 28.6301 252.834 28.6301C254.05 28.6301 255.053 28.842 255.904 29.2657C256.756 29.6894 257.455 30.2644 257.972 30.9605C258.519 31.6868 258.914 32.504 259.158 33.4421C259.401 34.3803 259.553 35.3791 259.553 36.4383C259.553 37.316 259.431 38.0121 259.218 38.466C258.975 38.92 258.549 39.1621 257.911 39.1621H249.185C249.185 39.6463 249.246 40.1306 249.337 40.5845C249.428 41.0385 249.641 41.4622 249.915 41.8556C250.189 42.2491 250.584 42.5517 251.07 42.7635C251.557 43.0057 252.165 43.0964 252.894 43.0964C253.837 43.0964 254.597 42.9451 255.144 42.6728C255.692 42.4004 256.117 42.0675 256.421 41.7043C256.664 41.4319 256.877 41.2503 257.12 41.1898C257.364 41.1293 257.577 41.1293 257.759 41.1595C257.972 41.2201 258.154 41.2806 258.306 41.4017C258.458 41.4924 258.61 41.5832 258.701 41.6438C259.097 41.9464 259.249 42.4004 259.188 42.9451C259.097 43.4899 258.793 44.0649 258.276 44.5794C257.759 45.1242 257.029 45.5781 256.117 45.9716C255.175 46.4255 254.08 46.6374 252.803 46.6374ZM255.631 36.1659C255.631 35.6514 255.6 35.1369 255.509 34.6225C255.418 34.1382 255.266 33.6843 255.053 33.3211C254.84 32.9579 254.536 32.6553 254.171 32.4434C253.807 32.2316 253.32 32.1105 252.712 32.1105C251.952 32.1105 251.344 32.2316 250.857 32.504C250.401 32.7763 250.037 33.1092 249.793 33.5027C249.55 33.9264 249.368 34.3501 249.276 34.8343C249.185 35.3185 249.155 35.7422 249.155 36.1357H255.631V36.1659Z" fill="#32BEA6"/>
<path d="M273.081 44.7004L272.048 44.2464V42.9753C271.865 43.3385 271.652 43.6714 271.379 44.0345C271.105 44.3675 270.771 44.7004 270.406 44.9727C270.041 45.2451 269.615 45.457 269.129 45.6083C268.643 45.7596 268.095 45.8504 267.518 45.8504C266.697 45.8504 265.906 45.7293 265.207 45.457C264.477 45.2149 263.869 44.8214 263.322 44.3372C262.775 43.853 262.349 43.2174 262.045 42.4608C261.741 41.7042 261.559 40.8265 261.559 39.7975V30.4459C261.559 30.0525 261.741 29.7498 262.075 29.5077C262.41 29.2656 262.896 29.1143 263.474 29.1143C264.052 29.1143 264.538 29.2353 264.933 29.5077C265.298 29.7498 265.481 30.0827 265.481 30.4459V38.2541C265.481 38.9199 265.511 39.5252 265.602 40.0094C265.693 40.5239 265.845 40.9476 266.058 41.2805C266.271 41.6134 266.606 41.8858 267.001 42.0371C267.396 42.2187 267.913 42.2792 268.521 42.2792C269.038 42.2792 269.494 42.2187 269.919 42.1279C270.345 42.0371 270.71 41.8253 271.044 41.5529C271.348 41.2805 271.592 40.8871 271.774 40.3726C271.956 39.8581 272.048 39.2225 272.048 38.4054V30.4459C272.048 30.0827 272.23 29.7801 272.595 29.5077C272.96 29.2353 273.446 29.1143 273.994 29.1143C274.571 29.1143 275.027 29.2656 275.392 29.538C275.757 29.8103 275.939 30.113 275.939 30.4459V44.5188L274.875 44.9425" fill="#32BEA6"/>
<path d="M272.048 44.7911C272.048 44.2463 272.048 44.2463 272.048 44.2463L276.001 44.549C276.001 44.549 276.001 44.7306 276.001 45.0937C276.031 47.4846 275.241 51.6611 272.261 55.656C267.397 62.1931 259.735 63.1918 256.816 63.6155C250.645 64.4629 241.736 64.0089 235.321 57.5021C233.011 54.748 230.791 50.6926 235.139 48.9676C237.024 48.211 239.031 49.2399 240.155 51.9637C241.28 54.6875 245.628 61.1943 258.306 59.0153C264.296 57.9258 271.805 52.8414 272.048 44.7911Z" fill="#32BEA6"/>
<path d="M189.99 36.1659C189.99 35.5001 189.959 34.8948 189.868 34.4106C189.777 33.8961 189.625 33.4724 189.412 33.1395C189.199 32.8066 188.865 32.5645 188.47 32.3829C188.074 32.2013 187.558 32.1408 186.95 32.1408C186.433 32.1408 185.977 32.2013 185.551 32.2921C185.125 32.3829 184.73 32.5947 184.426 32.8671C184.122 33.1395 183.848 33.5329 183.666 34.0474C183.484 34.5619 183.392 35.1975 183.392 36.0146V44.9728C183.392 45.3663 183.21 45.6689 182.845 45.911C182.48 46.1531 181.994 46.2742 181.386 46.3045C180.808 46.3347 180.322 46.2137 179.957 45.9413C179.592 45.6689 179.41 45.3663 179.41 44.9728V36.1659C179.41 34.804 179.197 33.8053 178.801 33.1395C178.376 32.4737 177.555 32.1408 176.339 32.1408C175.822 32.1408 175.366 32.2013 174.94 32.2921C174.515 32.3829 174.15 32.5947 173.815 32.8671C173.511 33.1395 173.268 33.5329 173.086 34.0474C172.903 34.5619 172.812 35.1975 172.812 36.0146V44.9728C172.812 45.3663 172.63 45.6689 172.265 45.911C171.9 46.1531 171.383 46.3045 170.745 46.3045C170.106 46.3045 169.62 46.1834 169.285 45.911C168.951 45.6689 168.799 45.336 168.799 44.9728V30.1131C168.799 29.7196 168.951 29.4473 169.285 29.2354C169.589 29.0236 170.106 28.9328 170.836 28.9328C171.566 28.9328 172.052 29.0538 172.326 29.2657C172.599 29.4775 172.751 29.7802 172.751 30.1131V31.7776C173.116 30.8999 173.633 30.1433 174.332 29.5381C175.031 28.9328 175.852 28.6301 176.795 28.6301C178.133 28.6301 179.166 28.9328 179.957 29.5078C180.717 30.0828 181.295 30.8999 181.659 31.9895C182.207 31.0513 182.967 30.2341 183.94 29.5986C184.913 28.963 186.007 28.6301 187.284 28.6301C188.074 28.6301 188.835 28.7512 189.625 29.0236C190.385 29.2657 191.084 29.6591 191.692 30.1433C192.3 30.6276 192.787 31.2329 193.152 31.9592C193.517 32.6855 193.699 33.5027 193.699 34.4409V45.0031C193.699 45.336 193.608 45.6386 193.456 45.911C193.304 46.1834 192.848 46.3045 192.088 46.3347C191.328 46.365 190.811 46.2742 190.507 46.0623C190.203 45.8505 190.051 45.5176 190.051 45.0031V36.1659H189.99Z" fill="#32BEA6"/>
<path d="M10.3222 0.993194L9.63574 2.57715L28.6188 10.7288L29.3052 9.14482L10.3222 0.993194Z" fill="#32BEA6"/>
<path d="M29.0049 11.7425L8.63477 2.99616L9.9117 0L30.2818 8.74638L29.0049 11.7425Z" fill="#32BEA6"/>
<path d="M10.3209 0.99629L2.13184 19.8926L3.72306 20.5759L11.9121 1.67959L10.3209 0.99629Z" fill="#32BEA6"/>
<path d="M4.13491 21.5784L1.125 20.2771L9.91152 0L12.9214 1.30136L4.13491 21.5784ZM3.13161 19.4902L3.34443 19.581L10.9452 2.05797L10.7324 1.96718L3.13161 19.4902Z" fill="#32BEA6"/>
<path d="M4.19593 21.3665C3.9527 22.2442 3.04061 22.7284 2.18932 22.4863C1.30763 22.2442 0.821179 21.3362 1.0644 20.4888C1.30763 19.6112 2.21972 19.1269 3.07101 19.3691C3.9527 19.5809 4.43916 20.4888 4.19593 21.3665Z" fill="#32BEA6"/>
<path d="M31.1334 10.6531C30.8902 11.5308 29.9781 12.015 29.1268 11.7729C28.2451 11.5308 27.7587 10.6228 28.0019 9.77545C28.2451 8.89779 29.1572 8.41356 30.0085 8.65567C30.8902 8.89779 31.3767 9.77545 31.1334 10.6531Z" fill="#32BEA6"/>
<path d="M67.4312 9.54306L63.5361 29.7544L65.2381 30.0794L69.1331 9.86806L67.4312 9.54306Z" fill="#32BEA6"/>
<path d="M65.8544 30.9605L62.6621 30.3553L66.8577 8.65576L70.0501 9.26105L65.8544 30.9605ZM64.4255 29.1447L64.6383 29.1749L68.2563 10.4414L68.0435 10.4111L64.4255 29.1447Z" fill="#32BEA6"/>
<path d="M48.8275 6.00381L48.501 7.698L68.8051 11.5752L69.1316 9.88103L48.8275 6.00381Z" fill="#32BEA6"/>
<path d="M69.4114 12.469L47.6123 8.2925L48.2204 5.11475L70.0195 9.29122L69.4114 12.469ZM49.4061 7.08192L68.2257 10.6834L68.2561 10.4715L49.4365 6.87007L49.4061 7.08192Z" fill="#32BEA6"/>
<path d="M47.7644 8.32276C46.8524 8.26223 46.1835 7.50562 46.2139 6.59769C46.2747 5.68976 47.0348 5.02395 47.9469 5.05421C48.859 5.11474 49.5278 5.87135 49.4974 6.77928C49.4366 7.68721 48.6765 8.35302 47.7644 8.32276Z" fill="#32BEA6"/>
<path d="M64.1824 32.2314C63.2703 32.1709 62.6015 31.4143 62.6319 30.5064C62.6927 29.5985 63.4527 28.9326 64.3648 28.9629C65.2769 29.0234 65.9458 29.78 65.9154 30.688C65.8546 31.5959 65.0641 32.292 64.1824 32.2314Z" fill="#32BEA6"/>
<path d="M56.2086 62.8277L36.2891 68.3328L36.7526 69.9949L56.6722 64.4898L56.2086 62.8277Z" fill="#32BEA6"/>
<path d="M36.2108 70.9394L35.3291 67.8222L56.7329 61.9207L57.6146 65.0379L36.2108 70.9394Z" fill="#32BEA6"/>
<path d="M51.1316 44.6623L49.4619 45.1238L54.9923 64.9523L56.662 64.4909L51.1316 44.6623Z" fill="#32BEA6"/>
<path d="M54.4528 65.9155L48.7979 45.6687L51.9294 44.791L57.5844 65.0378L54.4528 65.9155ZM50.4092 45.6687L55.5474 64.0391L55.7602 63.9786L50.622 45.6082L50.4092 45.6687Z" fill="#32BEA6"/>
<path d="M34.3561 70.0013C33.9913 69.1842 34.3865 68.2157 35.2074 67.8525C36.0283 67.4894 37.0012 67.8828 37.366 68.6999C37.7309 69.5171 37.3356 70.4855 36.5147 70.8487C35.6634 71.2119 34.6905 70.8184 34.3561 70.0013Z" fill="#32BEA6"/>
<path d="M2.56136 46.1482L0.834961 46.2988L2.6403 66.8003L4.36669 66.6497L2.56136 46.1482Z" fill="#32BEA6"/>
<path d="M1.9458 67.6104L0 45.6083L3.25314 45.3359L5.19894 67.3381L1.9458 67.6104ZM1.64177 46.9702L3.31395 65.9762L3.52677 65.9459L1.85459 46.9399L1.64177 46.9702Z" fill="#32BEA6"/>
<path d="M23.0819 63.2662L2.48633 65.063L2.63763 66.7815L23.2332 64.9847L23.0819 63.2662Z" fill="#32BEA6"/>
<path d="M1.9455 67.6105L1.67188 64.3722L23.775 62.4353L24.0486 65.6736L1.9455 67.6105ZM3.31365 65.7644L3.34405 65.9762L22.4372 64.3117L22.4068 64.0998L3.31365 65.7644Z" fill="#32BEA6"/>
<path d="M23.6233 62.4654C24.505 62.2536 25.3867 62.8286 25.5691 63.7063C25.782 64.5839 25.2043 65.4616 24.3226 65.6432C23.4409 65.855 22.5592 65.28 22.3768 64.4023C22.1944 63.5247 22.7417 62.6773 23.6233 62.4654Z" fill="#32BEA6"/>
<path d="M1.27764 43.9134C2.15933 43.7016 3.04103 44.2766 3.22344 45.1543C3.43627 46.0319 2.85861 46.9096 1.97691 47.0912C1.09522 47.2728 0.21353 46.728 0.0311114 45.8503C-0.151308 44.9727 0.395949 44.1253 1.27764 43.9134Z" fill="#32BEA6"/>
<path d="M95.7701 36.4987C95.7701 35.8329 95.7397 35.2276 95.6485 34.7434C95.5573 34.2591 95.4053 33.8052 95.1924 33.4723C94.9796 33.1394 94.6452 32.8972 94.2499 32.7157C93.8547 32.5341 93.3378 32.4735 92.7298 32.4735C92.2129 32.4735 91.7569 32.5341 91.3312 32.6249C90.9056 32.7157 90.5104 32.9275 90.2063 33.1999C89.9023 33.4723 89.6287 33.8657 89.4462 34.3802C89.2638 34.8947 89.1726 35.5302 89.1726 36.3474V45.3056C89.1726 45.699 88.9902 46.0017 88.6254 46.2438C88.2605 46.4859 87.7741 46.607 87.166 46.6372C86.5883 46.6675 86.1019 46.5464 85.7371 46.274C85.3722 46.0017 85.1898 45.699 85.1898 45.3056V36.4987C85.1898 35.1368 84.977 34.1381 84.5817 33.4723C84.1561 32.8064 83.3352 32.4735 82.1191 32.4735C81.6022 32.4735 81.1462 32.5341 80.7205 32.6249C80.2949 32.7157 79.9301 32.9275 79.5956 33.1999C79.2916 33.4723 79.0484 33.8657 78.8659 34.3802C78.6835 34.8947 78.5923 35.5302 78.5923 36.3474V45.3056C78.5923 45.699 78.4099 46.0017 78.0451 46.2438C77.6802 46.4859 77.1634 46.6372 76.5249 46.6372C75.8864 46.6372 75.4 46.5162 75.0655 46.2438C74.7311 46.0017 74.5791 45.6688 74.5791 45.3056V30.4156C74.5791 30.0221 74.7311 29.7498 75.0655 29.5379C75.3696 29.3261 75.8864 29.2353 76.6161 29.2353C77.3458 29.2353 77.8322 29.3563 78.1059 29.5682C78.3795 29.78 78.5315 30.0827 78.5315 30.4156V32.0801C78.8963 31.2024 79.4132 30.4458 80.1125 29.8405C80.8117 29.2353 81.6326 28.9326 82.5751 28.9326C83.9129 28.9326 84.9466 29.2353 85.7371 29.8103C86.4971 30.3853 87.0748 31.2024 87.4396 32.292C87.9869 31.3538 88.747 30.5366 89.7199 29.9011C90.6928 29.2655 91.7873 28.9326 93.0642 28.9326C93.8547 28.9326 94.6148 29.0537 95.4053 29.3261C96.1653 29.5682 96.8646 29.9616 97.4727 30.4458C98.0807 30.9301 98.5672 31.5353 98.932 32.2617C99.2969 32.988 99.4793 33.8052 99.4793 34.7434V45.3056C99.4793 45.6385 99.3881 45.9411 99.2361 46.2135C99.084 46.4859 98.628 46.607 97.8679 46.6372C97.1078 46.6675 96.591 46.5767 96.287 46.3648C95.9829 46.153 95.8309 45.8201 95.8309 45.3056V36.4987H95.7701Z" fill="#211C1D"/>
<path d="M109.026 28.9326C110.485 28.9326 111.731 29.1747 112.765 29.6287C113.799 30.0827 114.65 30.7485 115.289 31.5656C115.927 32.3827 116.414 33.3512 116.718 34.471C117.022 35.5908 117.174 36.8013 117.174 38.0724C117.174 39.3738 117.022 40.5844 116.718 41.6436C116.414 42.7331 115.927 43.6713 115.258 44.4279C114.589 45.2148 113.738 45.8201 112.735 46.274C111.701 46.728 110.485 46.9399 109.026 46.9399C107.597 46.9399 106.35 46.728 105.347 46.274C104.343 45.8201 103.492 45.2148 102.854 44.3977C102.185 43.6108 101.729 42.6726 101.425 41.5831C101.121 40.4936 100.969 39.283 100.969 38.0119C100.969 36.7408 101.121 35.5302 101.425 34.4407C101.729 33.3209 102.185 32.3827 102.823 31.5656C103.462 30.7485 104.283 30.1129 105.316 29.659C106.32 29.1747 107.566 28.9326 109.026 28.9326ZM109.026 43.4595C110.455 43.4595 111.488 43.0055 112.157 42.0673C112.826 41.1291 113.16 39.7975 113.16 38.1027C113.16 36.4079 112.856 35.046 112.218 34.017C111.579 32.988 110.515 32.4735 108.995 32.4735C108.235 32.4735 107.597 32.6249 107.08 32.9275C106.563 33.2301 106.168 33.6236 105.864 34.1381C105.56 34.6526 105.347 35.2276 105.225 35.8934C105.104 36.5592 105.043 37.2856 105.043 38.0422C105.043 39.737 105.347 41.0686 105.985 42.037C106.563 42.9752 107.597 43.4595 109.026 43.4595Z" fill="#211C1D"/>
<path d="M129.579 36.529C129.579 35.8631 129.548 35.2579 129.457 34.7434C129.366 34.2289 129.214 33.8052 129.001 33.4723C128.788 33.1394 128.454 32.8972 128.059 32.7157C127.663 32.5341 127.147 32.4735 126.539 32.4735C126.022 32.4735 125.566 32.5341 125.14 32.6249C124.714 32.7157 124.349 32.9275 124.015 33.1999C123.711 33.4723 123.468 33.896 123.285 34.4105C123.103 34.9249 123.012 35.5908 123.012 36.3776V45.3056C123.012 45.6688 122.829 45.9714 122.464 46.2438C122.1 46.5162 121.613 46.6372 121.066 46.6372C120.488 46.6372 120.032 46.4859 119.667 46.2135C119.303 45.9411 119.12 45.6385 119.12 45.3056V30.5972C119.12 30.2037 119.303 29.9011 119.698 29.659C120.093 29.4168 120.549 29.2655 121.096 29.2655C121.644 29.2655 122.1 29.3866 122.464 29.659C122.829 29.9011 123.012 30.234 123.012 30.5972V32.1406C123.194 31.7472 123.437 31.384 123.681 30.9906C123.954 30.5972 124.258 30.2642 124.623 29.9616C124.988 29.659 125.414 29.4168 125.9 29.205C126.386 29.0234 126.934 28.9326 127.542 28.9326C128.454 28.9326 129.275 29.0537 130.004 29.3261C130.734 29.5682 131.373 29.9616 131.889 30.4458C132.406 30.9301 132.802 31.5656 133.106 32.3222C133.379 33.0788 133.531 33.9565 133.531 34.9855V45.3056C133.531 45.699 133.349 46.0017 133.014 46.2438C132.68 46.4859 132.193 46.6372 131.616 46.6372C131.038 46.6372 130.552 46.5162 130.187 46.2438C129.822 46.0017 129.64 45.6688 129.64 45.3056V36.529H129.579Z" fill="#211C1D"/>
<path d="M142.682 46.9399C141.405 46.9399 140.28 46.728 139.307 46.3043C138.365 45.8806 137.574 45.2753 136.936 44.5187C136.297 43.7621 135.811 42.8239 135.507 41.7344C135.203 40.6449 135.021 39.4041 135.021 38.0724C135.021 36.7711 135.173 35.5605 135.507 34.4407C135.811 33.3209 136.297 32.3525 136.936 31.5353C137.574 30.7182 138.395 30.0827 139.338 29.6287C140.28 29.1747 141.405 28.9326 142.682 28.9326C143.898 28.9326 144.902 29.1445 145.753 29.5682C146.604 29.9919 147.303 30.5669 147.82 31.263C148.368 31.9893 148.763 32.8064 149.006 33.7446C149.249 34.6828 149.401 35.6816 149.401 36.7408C149.401 37.6185 149.28 38.3145 149.067 38.7685C148.824 39.2225 148.398 39.4646 147.759 39.4646H139.034C139.034 39.9488 139.095 40.433 139.186 40.887C139.277 41.341 139.49 41.7647 139.763 42.1581C140.037 42.5515 140.432 42.8542 140.919 43.066C141.405 43.3082 142.013 43.3989 142.743 43.3989C143.685 43.3989 144.446 43.2476 144.993 42.9752C145.54 42.7029 145.966 42.37 146.27 42.0068C146.513 41.7344 146.726 41.5528 146.969 41.4923C147.212 41.4318 147.425 41.4318 147.607 41.462C147.82 41.5226 148.003 41.5831 148.155 41.7041C148.307 41.7949 148.459 41.8857 148.55 41.9463C148.945 42.2489 149.097 42.7029 149.036 43.2476C148.945 43.7924 148.641 44.3674 148.124 44.8819C147.607 45.4267 146.878 45.8806 145.966 46.274C145.054 46.7583 143.959 46.9399 142.682 46.9399ZM145.51 36.4987C145.51 35.9842 145.479 35.4697 145.388 34.9552C145.297 34.471 145.145 34.017 144.932 33.6538C144.719 33.2907 144.415 32.988 144.05 32.7762C143.685 32.5643 143.199 32.4433 142.591 32.4433C141.831 32.4433 141.223 32.5643 140.736 32.8367C140.28 33.1091 139.915 33.442 139.672 33.8354C139.429 34.2591 139.247 34.6828 139.155 35.1671C139.064 35.6513 139.034 36.075 139.034 36.4684H145.51V36.4987Z" fill="#211C1D"/>
<path d="M161.624 43.0964C161.441 43.4596 161.228 43.7925 160.955 44.1556C160.681 44.5188 160.347 44.8215 159.982 45.0938C159.617 45.3662 159.191 45.5781 158.705 45.7294C158.219 45.8807 157.671 45.9715 157.094 45.9715C156.273 45.9715 155.482 45.8504 154.783 45.5781C154.053 45.336 153.445 44.9425 152.898 44.4583C152.351 43.9741 151.925 43.3385 151.621 42.5819C151.317 41.8253 151.135 40.9476 151.135 39.9186V30.567C151.135 30.1735 151.317 29.8709 151.651 29.6288C151.986 29.3867 152.472 29.2354 153.05 29.2354C153.628 29.2354 154.114 29.3564 154.479 29.6288C154.844 29.8709 155.026 30.2038 155.026 30.567V38.3752C155.026 39.041 155.057 39.6463 155.148 40.1305C155.239 40.645 155.391 41.0687 155.604 41.4016C155.817 41.7345 156.151 42.0069 156.546 42.1582C156.942 42.3398 157.458 42.4003 158.067 42.4003C158.583 42.4003 159.039 42.3398 159.465 42.249C159.891 42.1582 160.256 41.9464 160.59 41.674C160.894 41.4016 161.137 41.0082 161.32 40.4937C161.502 39.9792 161.593 39.3436 161.593 38.5265V30.567C161.593 30.2038 161.776 29.9012 162.141 29.6288C162.505 29.3564 162.992 29.2354 163.539 29.2354C164.117 29.2354 164.573 29.3867 164.938 29.6591C165.302 29.9314 165.485 30.2341 165.485 30.567V45.5478C165.485 46.5163 165.272 47.3939 164.877 48.1808C164.482 48.9677 163.904 49.6637 163.205 50.2085C162.475 50.7835 161.654 51.2072 160.681 51.5099C159.708 51.8125 158.675 51.9336 157.58 51.9336C156.972 51.9336 156.425 51.9033 155.908 51.8428C155.421 51.7822 154.935 51.6915 154.479 51.5401C154.023 51.3888 153.567 51.2072 153.141 50.9651C152.716 50.723 152.259 50.4203 151.803 50.0572C151.287 49.6637 150.983 49.24 150.891 48.8466C150.8 48.4229 150.8 48.0295 150.952 47.636C151.135 47.0308 151.408 46.6978 151.803 46.5768C152.168 46.4557 152.533 46.5465 152.898 46.8794C153.415 47.3334 154.023 47.6663 154.783 47.9387C155.543 48.2111 156.455 48.3321 157.55 48.3019C158.219 48.2716 158.796 48.1808 159.283 48.0295C159.769 47.8479 160.195 47.636 160.529 47.3939C160.864 47.1518 161.107 46.8492 161.289 46.5465C161.472 46.2439 161.532 45.911 161.532 45.6083V43.0964H161.624Z" fill="#211C1D"/>
<path d="M56.3677 35.1368C57.0974 31.5354 59.2256 17.1296 40.1628 11.2583C40.7709 9.17006 40.7709 5.59888 36.8185 3.32906C36.6969 3.26853 36.484 3.11721 36.3928 3.208C36.2712 3.32906 36.4232 3.45012 36.484 3.66197C36.9097 5.14491 37.0921 9.20033 28.9441 10.532C20.2792 11.9544 7.54023 17.1296 10.5197 34.1986C10.5197 34.1986 5.19918 34.5618 5.62483 42.7331C5.89846 46.153 6.96257 48.9676 12.3439 50.1782C15.0498 53.9915 21.1608 60.3167 34.2646 59.9233C44.3281 59.439 51.5336 55.9284 54.3003 50.1479C56.6413 51.1164 61.2322 48.7255 61.4754 42.6726C61.6579 38.9804 60.5634 36.2263 56.3677 35.1368ZM41.3181 53.9612C34.2342 57.1995 21.4649 54.1428 17.9989 51.5401C13.0432 48.4531 11.7359 44.3977 11.7055 41.5528C11.6751 37.0737 15.2626 34.1078 15.9315 33.7749C11.2798 26.8444 15.8099 20.8823 18.8502 19.4599C27.6367 15.5256 31.8932 25.1496 31.8932 25.1496C35.6632 19.3994 41.7438 20.156 44.0848 21.0639C52.6585 25.0588 48.4021 34.3499 45.757 36.7408C50.3479 40.766 49.2838 46.3346 47.3076 49.3308C45.5442 51.994 42.9295 53.2349 41.3181 53.9612Z" fill="#211C1D"/>
<path d="M23.5323 30.2945C22.7114 30.1735 22.1945 29.084 22.3465 27.9036C22.4986 26.9352 23.0458 26.1786 23.6843 25.9667C23.5019 25.8759 23.3498 25.8154 23.137 25.7851C21.7689 25.5733 20.4007 27.1773 20.0967 29.3563C19.7927 31.5354 20.644 33.4723 22.0121 33.6539C23.3802 33.8657 24.7484 32.2617 25.0524 30.0827C25.1132 29.7195 25.1132 29.3866 25.1132 29.0537C24.8092 29.8708 24.1707 30.3853 23.5323 30.2945Z" fill="#211C1D"/>
<path d="M38.2169 31.9589C39.0378 32.1103 39.8586 31.2326 40.0715 30.0523C40.2539 29.0838 39.9499 28.1759 39.4026 27.8127C39.585 27.7825 39.7674 27.7825 39.9803 27.8127C41.3484 28.0549 42.1389 29.9918 41.774 32.1405C41.4092 34.3196 39.9803 35.863 38.6121 35.6512C37.244 35.4091 36.4535 33.4722 36.8183 31.3234C36.8791 30.9602 36.9703 30.6273 37.092 30.3247C37.1528 31.1721 37.5784 31.8379 38.2169 31.9589Z" fill="#211C1D"/>
<path d="M25.0215 36.8923C25.0215 36.8923 29.4603 35.0764 33.7472 37.9212C32.379 38.0726 30.0684 38.6778 29.1259 39.7976C28.6699 38.6173 27.697 37.316 25.0215 36.8923Z" fill="#211C1D"/>
<path d="M27.2109 43.2779C27.2109 43.2779 30.6161 45.7293 33.7476 44.7306C36.1799 43.9437 37.7912 43.0055 38.5513 40.2817C38.4601 41.7042 38.1865 44.6398 33.8388 45.6688C32.1059 46.032 28.7311 46.0925 27.2109 43.2779Z" fill="#211C1D"/>
<path d="M41.8663 12.7413C41.8663 12.7413 38.2484 10.2899 38.7956 10.3201C38.7956 10.3201 41.7143 9.71485 41.988 7.26345C42.1096 6.59763 42.6568 7.50556 42.748 8.95825C42.8088 10.3807 42.2616 11.9241 41.8663 12.7413Z" fill="#211C1D"/>
</g>
<defs>
<clipPath id="clip0_704_8587">
<rect width="276" height="71" fill="white"/>
</clipPath>
</defs>
</svg>
