<svg width="24" height="24" viewBox="0 0 24 24" fill="none" xmlns="http://www.w3.org/2000/svg">
<g clip-path="url(#clip0_704_8428)">
<path d="M16.5235 10.3125C16.5235 9.79472 16.1037 9.375 15.586 9.375H5.92969C5.41191 9.375 4.99219 9.79472 4.99219 10.3125C4.99219 10.8303 5.41191 11.25 5.92969 11.25H15.586C16.1037 11.25 16.5235 10.8303 16.5235 10.3125Z" fill="white"/>
<path d="M5.92969 13.125C5.41191 13.125 4.99219 13.5447 4.99219 14.0625C4.99219 14.5803 5.41191 15 5.92969 15H11.7943C12.312 15 12.7318 14.5803 12.7318 14.0625C12.7318 13.5447 12.312 13.125 11.7943 13.125H5.92969Z" fill="white"/>
<path d="M8.13152 22.125H4.99609C3.96222 22.125 3.12109 21.2839 3.12109 20.25V3.75C3.12109 2.71613 3.96222 1.875 4.99609 1.875H16.5221C17.556 1.875 18.3971 2.71613 18.3971 3.75V9.51562C18.3971 10.0334 18.8169 10.4531 19.3346 10.4531C19.8524 10.4531 20.2721 10.0334 20.2721 9.51562V3.75C20.2721 1.68225 18.5899 0 16.5221 0H4.99609C2.92834 0 1.24609 1.68225 1.24609 3.75V20.25C1.24609 22.3177 2.92834 24 4.99609 24H8.13152C8.6493 24 9.06902 23.5803 9.06902 23.0625C9.06902 22.5447 8.6493 22.125 8.13152 22.125Z" fill="white"/>
<path d="M21.9341 13.5743C20.8375 12.4777 19.0532 12.4776 17.9573 13.5735L12.8103 18.7091C12.701 18.8182 12.6204 18.9526 12.5755 19.1003L11.4546 22.7905C11.3552 23.1177 11.4418 23.473 11.6805 23.7177C11.8594 23.901 12.1024 24.0006 12.3517 24.0006C12.435 24.0006 12.5192 23.9894 12.6019 23.9665L16.3859 22.9183C16.5416 22.8752 16.6835 22.7926 16.7979 22.6784L21.9341 17.5518C23.0307 16.4552 23.0307 14.671 21.9341 13.5743ZM15.6478 21.1772L13.7441 21.7045L14.3012 19.8704L17.7741 16.4051L19.1002 17.7312L15.6478 21.1772ZM20.609 16.2254L20.4273 16.4067L19.1015 15.0808L19.2825 14.9002C19.648 14.5346 20.2428 14.5346 20.6083 14.9002C20.9738 15.2657 20.9738 15.8605 20.609 16.2254Z" fill="white"/>
<path d="M15.586 5.625H5.92969C5.41191 5.625 4.99219 6.04472 4.99219 6.5625C4.99219 7.08028 5.41191 7.5 5.92969 7.5H15.586C16.1037 7.5 16.5235 7.08028 16.5235 6.5625C16.5235 6.04472 16.1037 5.625 15.586 5.625Z" fill="white"/>
</g>
<defs>
<clipPath id="clip0_704_8428">
<rect width="24" height="24" fill="white"/>
</clipPath>
</defs>
</svg>
