<svg width="50" height="51" viewBox="0 0 50 51" fill="none" xmlns="http://www.w3.org/2000/svg">
<circle cx="24.6905" cy="25.482" r="24.1905" fill="url(#paint0_linear_704_8040)"/>
<circle cx="24.6905" cy="25.482" r="24.1905" stroke="#45FCDB"/>
<circle cx="24.6905" cy="25.482" r="24.1905" stroke="#45FCDB"/>
<path fill-rule="evenodd" clip-rule="evenodd" d="M29.7231 16.2007L33.3021 17.2233C34.2819 17.2515 34.8359 17.9499 34.8359 18.7571C34.8359 28.1066 27.2587 35.6331 17.9637 35.6293C17.1546 35.6293 16.4565 35.0752 16.4299 34.0955L15.4073 30.5165C15.2651 29.8867 15.6862 29.0517 16.4299 28.4714L20.5201 26.9376C21.021 26.7668 21.8557 26.9718 22.5652 27.4489L23.5878 28.9827C25.5703 28.0042 27.2094 26.3645 28.1893 24.3812L26.6554 23.3586C26.1812 22.6487 25.9763 21.8137 26.1442 21.3135L27.678 17.2233C28.2604 16.481 29.0952 16.0559 29.7231 16.2007ZM17.4533 30.5168L18.4759 34.0958C26.549 34.0576 33.2648 27.3418 33.303 19.2687L29.724 18.2462L28.1902 21.8251L30.7466 23.8702C29.066 27.8909 27.0905 29.8588 23.0774 31.5394L21.0323 28.983L17.4533 30.5168Z" fill="#45FCDB"/>
<path fill-rule="evenodd" clip-rule="evenodd" d="M29.7231 16.2007L33.3021 17.2233C34.2819 17.2515 34.8359 17.9499 34.8359 18.7571C34.8359 28.1066 27.2587 35.6331 17.9637 35.6293C17.1546 35.6293 16.4565 35.0752 16.4299 34.0955L15.4073 30.5165C15.2651 29.8867 15.6862 29.0517 16.4299 28.4714L20.5201 26.9376C21.021 26.7668 21.8557 26.9718 22.5652 27.4489L23.5878 28.9827C25.5703 28.0042 27.2094 26.3645 28.1893 24.3812L26.6554 23.3586C26.1812 22.6487 25.9763 21.8137 26.1442 21.3135L27.678 17.2233C28.2604 16.481 29.0952 16.0559 29.7231 16.2007ZM17.4533 30.5168L18.4759 34.0958C26.549 34.0576 33.2648 27.3418 33.303 19.2687L29.724 18.2462L28.1902 21.8251L30.7466 23.8702C29.066 27.8909 27.0905 29.8588 23.0774 31.5394L21.0323 28.983L17.4533 30.5168Z" fill="white"/>
<defs>
<linearGradient id="paint0_linear_704_8040" x1="-23.9089" y1="24.7004" x2="23.9089" y2="72.5181" gradientUnits="userSpaceOnUse">
<stop stop-color="#45FCDB"/>
<stop offset="1" stop-color="#1E84FC"/>
</linearGradient>
</defs>
</svg>
